PathFileType	4	(X/Y/Z)	s01c0401.trc
DataRate	CameraRate	NumFrames	NumMarkers	Units	OrigDataRate	OrigDataStartFrame	OrigNumFrames
200	200	4	48	mm	200	1750	2000
Frame#	Time	racr			lacr			c7			jug			rlel			rdr			llel			ldr			s2			lic			ric			lasi			rasi			rpsi			lpsi			rgt			lgt			rth1			rth2			rth3			rth4			rlfc			rsh1			rsh2			rsh3			rsh4			rlmal			rmmal			rcal			rtoe			rmt5			lth1			lth2			lth4			lth3			llfc			lsh1			lsh2			lsh3			lsh4			llmal			lmmal			lcal			ltoe			lmt5			SBIKE			LBIKE			RBIKE			
		X1	Y1	Z1	X2	Y2	Z2	X3	Y3	Z3	X4	Y4	Z4	X5	Y5	Z5	X6	Y6	Z6	X7	Y7	Z7	X8	Y8	Z8	X9	Y9	Z9	X10	Y10	Z10	X11	Y11	Z11	X12	Y12	Z12	X13	Y13	Z13	X14	Y14	Z14	X15	Y15	Z15	X16	Y16	Z16	X17	Y17	Z17	X18	Y18	Z18	X19	Y19	Z19	X20	Y20	Z20	X21	Y21	Z21	X22	Y22	Z22	X23	Y23	Z23	X24	Y24	Z24	X25	Y25	Z25	X26	Y26	Z26	X27	Y27	Z27	X28	Y28	Z28	X29	Y29	Z29	X30	Y30	Z30	X31	Y31	Z31	X32	Y32	Z32	X33	Y33	Z33	X34	Y34	Z34	X35	Y35	Z35	X36	Y36	Z36	X37	Y37	Z37	X38	Y38	Z38	X39	Y39	Z39	X40	Y40	Z40	X41	Y41	Z41	X42	Y42	Z42	X43	Y43	Z43	X44	Y44	Z44	X45	Y45	Z45	X46	Y46	Z46	X47	Y47	Z47	X48	Y48	Z48	
1750	8.7500	721.963220	1280.934464	-63.036988	725.268973	1244.270416	-446.191622	744.164877	1358.400554	-249.004538	702.925371	1197.442483	-244.005755	562.137773	1060.081149	49.454012	703.842133	888.352234	-45.873662	544.596268	1050.067709	-571.729983	685.977471	880.334093	-473.558017	189.717515	1225.814544	-247.111598	356.481597	1214.492348	-416.346890	345.504951	1196.849660	-88.951605	351.535311	1156.008586	-392.862586	362.847515	1147.335862	-122.858124	227.570889	1255.867945	-193.558583	225.616961	1264.357160	-298.290511	274.835825	1086.435209	-67.412283	284.318496	1085.762256	-445.464689	339.718122	963.724173	-56.919154	384.859379	894.573490	-65.274628	428.589963	817.085175	-82.416012	432.115487	922.824145	-79.849560	461.831310	709.929952	-106.079023	407.506029	602.949186	-71.823284	380.414478	522.660339	-76.681921	343.434185	442.210640	-86.402131	422.182499	508.133133	-117.852342	279.784480	333.874003	-103.228403	319.336768	339.614530	-183.806252	230.003856	319.345366	-156.489201	485.418087	225.765738	-143.576913	377.444002	226.448010	-73.291976	339.618682	968.008244	-463.619435	403.981976	909.281978	-457.739239	442.071128	948.493652	-445.511211	459.724278	845.426379	-442.394124	501.476938	751.409777	-424.641067	391.952778	714.474421	-453.636058	319.148853	668.544981	-447.829722	245.692028	625.202018	-435.630246	350.750535	621.751819	-421.796044	141.283337	567.040373	-421.982961	162.320324	547.966696	-342.655411	92.298400	591.761144	-379.575667	197.714425	335.654388	-376.666451	132.635612	417.448907	-445.946151	-276.079434	875.715694	-267.467165	-21.327677	80.621746	-453.934329	-21.322701	80.562917	-53.892306	
1751	8.7550	722.692922	1281.446619	-64.410496	724.316725	1244.444300	-446.951306	743.964011	1358.492027	-250.012000	702.901605	1197.846843	-244.668829	563.461325	1060.363061	49.049537	704.296995	888.529434	-45.619051	543.548048	1049.645683	-571.432282	685.795194	880.387491	-473.470000	189.745620	1225.476055	-244.962845	355.596438	1214.864761	-415.241586	346.154090	1195.097196	-88.297644	350.898243	1156.245087	-391.694310	362.858306	1145.279953	-121.955532	227.840434	1255.033179	-191.266289	225.361156	1264.150177	-296.069437	273.874529	1084.300143	-66.789426	283.783627	1087.460140	-444.944065	335.760593	960.302333	-56.060376	378.886462	889.967970	-64.822148	420.365368	811.327592	-82.239902	426.960949	916.866197	-79.083786	451.962080	703.504279	-105.410331	398.919528	596.282441	-71.275804	372.800643	515.741841	-76.289888	336.986001	434.797782	-86.085981	414.809486	501.781917	-117.502285	274.376563	326.195268	-103.398691	313.071438	331.507794	-183.753347	225.100134	312.367260	-156.997150	479.428330	216.167265	-143.461622	371.465486	218.095717	-73.197715	341.163083	970.958157	-462.857806	407.184208	913.905261	-457.952049	444.365728	953.871398	-445.169346	464.570781	851.391179	-443.274462	508.411563	758.155764	-425.302725	398.340410	721.994977	-454.020494	325.168956	676.459947	-447.947283	251.062623	634.146446	-435.893478	356.469087	629.433433	-422.606061	146.638777	575.853355	-421.908468	168.077287	556.911997	-342.383201	97.077623	600.082705	-379.463147	204.531198	344.860501	-376.786471	138.793342	426.234927	-446.003221	-276.144735	875.735174	-267.500262	-21.328857	80.624885	-453.935584	-21.327389	80.561699	-53.881747	
1752	8.7600	723.341250	1281.607325	-67.453688	723.292134	1244.576158	-447.728466	743.677385	1358.559170	-251.009939	702.923542	1198.123570	-245.408134	564.773275	1060.750302	48.670417	704.847521	888.751182	-45.235224	542.451383	1049.255795	-571.171896	685.819631	880.611584	-473.185935	189.727084	1225.123171	-242.772152	354.675155	1215.150693	-414.128900	346.860540	1193.212598	-87.718054	350.193830	1156.482058	-390.569207	362.863265	1143.104211	-121.157864	228.031301	1254.204936	-188.844976	225.091069	1263.881301	-293.821262	272.930664	1082.095366	-66.112866	283.173197	1089.206247	-444.436436	331.790387	957.078935	-55.186168	372.912481	885.641290	-64.229395	412.146804	805.875709	-81.861371	421.826382	911.218075	-78.248324	442.138163	697.372004	-104.577348	390.453748	590.059951	-70.689528	365.232883	509.200618	-75.844621	330.344551	427.867602	-85.713700	407.238569	495.856527	-116.966103	268.834353	319.188254	-103.504046	307.264004	324.195089	-183.393439	219.815352	306.378441	-156.359864	473.046928	206.836835	-143.318109	365.092987	210.098983	-73.195913	342.586216	973.993459	-462.123451	410.166736	918.602474	-458.190474	446.330049	959.360731	-444.935295	469.064483	857.295084	-444.138931	515.187260	764.650803	-426.050051	404.741115	729.575105	-454.479970	331.172098	684.682490	-448.336135	256.383682	642.856010	-436.355143	362.303081	637.048582	-423.402039	152.233039	584.284010	-421.882164	174.014563	565.539389	-342.060402	102.072632	608.024632	-379.425347	211.806593	353.747008	-376.779401	145.360935	434.654518	-446.053994	-276.167197	875.740622	-267.457536	-21.333216	80.625902	-453.939624	-21.331843	80.568479	-53.882886	
1753	8.7650	724.043030	1282.513427	-67.306110	722.237478	1244.695534	-448.536361	743.323283	1358.597461	-252.067423	702.914863	1198.335685	-246.233681	566.008426	1061.235479	48.322596	705.398994	888.856764	-44.695986	541.366818	1048.798319	-570.866164	685.660429	880.655418	-473.068458	189.704989	1224.684140	-240.522771	353.718044	1215.321227	-413.020819	347.546186	1191.265498	-87.316589	349.381855	1156.630074	-389.535887	362.857787	1140.815787	-120.470788	228.281936	1253.289146	-186.412402	224.763151	1263.552138	-291.612466	272.020911	1079.857221	-65.441081	282.260982	1090.985142	-444.317372	327.900367	954.179556	-54.279467	367.193955	881.573490	-63.503310	404.173082	801.021148	-81.096350	416.478437	906.108326	-77.421737	432.633006	691.661394	-103.665347	382.048490	584.372359	-69.981839	357.719185	503.256186	-75.291185	323.624361	421.559746	-85.299451	399.838429	490.374872	-116.391229	262.995561	312.661304	-103.829285	301.552085	317.565128	-182.868728	214.452314	300.795133	-156.407257	466.075948	198.082795	-142.396165	358.181227	202.568441	-73.137155	344.013163	977.060994	-461.490868	412.890422	923.301330	-458.313188	448.195937	964.685026	-444.680479	473.342796	863.313348	-444.855380	521.508067	771.408111	-427.036672	411.143515	737.181791	-454.993261	337.344356	692.767386	-448.753736	261.746000	651.599537	-437.018856	368.331688	644.733425	-424.281040	158.047370	592.298939	-421.898571	180.028663	573.829782	-341.904507	107.220274	615.445622	-379.415097	219.781885	362.531023	-376.927743	152.369352	442.649377	-446.113702	-276.231311	875.717339	-267.358132	-21.333089	80.629477	-453.942589	-21.328365	80.565465	-53.882127	
